<mxfile host="65bd71144e">
    <diagram id="Ks5LIrTwfTGQYErPXyaQ" name="第 1 页">
        <mxGraphModel dx="884" dy="508" grid="1" gridSize="10" guides="1" tooltips="1" connect="1" arrows="1" fold="1" page="1" pageScale="1" pageWidth="1169" pageHeight="827" math="0" shadow="0">
            <root>
                <mxCell id="0"/>
                <mxCell id="1" parent="0"/>
                <mxCell id="139" value="" style="shape=flexArrow;endArrow=classic;html=1;rounded=1;labelBackgroundColor=default;fontFamily=Helvetica;fontSize=18;fontColor=default;strokeColor=default;width=6;endSize=3.3;endWidth=6.5;" edge="1" parent="1" target="138">
                    <mxGeometry width="50" height="50" relative="1" as="geometry">
                        <mxPoint x="384.75" y="364.35" as="sourcePoint"/>
                        <mxPoint x="384.75" y="440" as="targetPoint"/>
                    </mxGeometry>
                </mxCell>
                <mxCell id="129" value="" style="endArrow=none;html=1;rounded=1;labelBackgroundColor=default;fontFamily=Helvetica;fontSize=18;fontColor=default;strokeColor=#2D7600;shape=connector;fillColor=#60a917;" edge="1" parent="1">
                    <mxGeometry width="50" height="50" relative="1" as="geometry">
                        <mxPoint x="580" y="370" as="sourcePoint"/>
                        <mxPoint x="590" y="370" as="targetPoint"/>
                    </mxGeometry>
                </mxCell>
                <mxCell id="128" value="" style="endArrow=none;html=1;rounded=1;labelBackgroundColor=default;fontFamily=Helvetica;fontSize=18;fontColor=default;strokeColor=#006EAF;shape=connector;exitX=0.75;exitY=0;exitDx=0;exitDy=0;entryX=0;entryY=0.75;entryDx=0;entryDy=0;fillColor=#1ba1e2;" edge="1" parent="1" source="44" target="28">
                    <mxGeometry width="50" height="50" relative="1" as="geometry">
                        <mxPoint x="570" y="380" as="sourcePoint"/>
                        <mxPoint x="620" y="330" as="targetPoint"/>
                    </mxGeometry>
                </mxCell>
                <mxCell id="127" value="" style="endArrow=classic;html=1;rounded=1;labelBackgroundColor=default;fontFamily=Helvetica;fontSize=18;fontColor=default;strokeColor=#A50040;shape=connector;exitX=1;exitY=0.75;exitDx=0;exitDy=0;entryX=0.733;entryY=0.81;entryDx=0;entryDy=0;entryPerimeter=0;fillColor=#d80073;" edge="1" parent="1" source="44" target="28">
                    <mxGeometry width="50" height="50" relative="1" as="geometry">
                        <mxPoint x="550" y="389.40000000000003" as="sourcePoint"/>
                        <mxPoint x="600" y="389.35881" as="targetPoint"/>
                    </mxGeometry>
                </mxCell>
                <mxCell id="106" value="" style="shape=link;html=1;rounded=1;labelBackgroundColor=default;fontFamily=Helvetica;fontSize=18;fontColor=default;endArrow=none;strokeColor=default;exitX=0;exitY=0.5;exitDx=0;exitDy=0;" edge="1" parent="1" source="102">
                    <mxGeometry width="100" relative="1" as="geometry">
                        <mxPoint x="1010" y="300" as="sourcePoint"/>
                        <mxPoint x="1010" y="330" as="targetPoint"/>
                        <Array as="points">
                            <mxPoint x="1020" y="310"/>
                        </Array>
                    </mxGeometry>
                </mxCell>
                <mxCell id="101" value="" style="rounded=0;whiteSpace=wrap;html=1;fontFamily=Helvetica;fontSize=18;fontColor=default;rotation=64;" vertex="1" parent="1">
                    <mxGeometry x="936.98" y="260" width="67.43" height="3" as="geometry"/>
                </mxCell>
                <mxCell id="63" value="" style="endArrow=none;dashed=1;html=1;rounded=0;labelBackgroundColor=default;fontFamily=Helvetica;fontSize=18;fontColor=default;strokeColor=default;shape=connector;exitX=1;exitY=0.75;exitDx=0;exitDy=0;" edge="1" parent="1" source="20">
                    <mxGeometry width="50" height="50" relative="1" as="geometry">
                        <mxPoint x="630" y="314.35" as="sourcePoint"/>
                        <mxPoint x="480" y="367.35" as="targetPoint"/>
                    </mxGeometry>
                </mxCell>
                <mxCell id="22" value="" style="endArrow=none;dashed=1;html=1;rounded=0;fontSize=18;" edge="1" parent="1" source="4" target="20">
                    <mxGeometry width="50" height="50" relative="1" as="geometry">
                        <mxPoint x="180" y="384.35" as="sourcePoint"/>
                        <mxPoint x="260" y="354.35" as="targetPoint"/>
                    </mxGeometry>
                </mxCell>
                <mxCell id="20" value="" style="rounded=1;whiteSpace=wrap;html=1;fontSize=18;" vertex="1" parent="1">
                    <mxGeometry x="360" y="328.72" width="70" height="51.25" as="geometry"/>
                </mxCell>
                <mxCell id="4" value="" style="whiteSpace=wrap;html=1;aspect=fixed;" vertex="1" parent="1">
                    <mxGeometry x="70" y="294.35" width="120" height="120" as="geometry"/>
                </mxCell>
                <mxCell id="2" value="" style="whiteSpace=wrap;html=1;aspect=fixed;" vertex="1" parent="1">
                    <mxGeometry x="50" y="314.35" width="120" height="120" as="geometry"/>
                </mxCell>
                <mxCell id="3" value="&lt;span style=&quot;font-size: 18px&quot;&gt;TAG&lt;br&gt;&lt;br&gt;&lt;/span&gt;" style="text;html=1;strokeColor=none;fillColor=none;align=center;verticalAlign=middle;whiteSpace=wrap;rounded=0;" vertex="1" parent="1">
                    <mxGeometry x="80" y="374.35" width="60" height="30" as="geometry"/>
                </mxCell>
                <mxCell id="5" value="" style="endArrow=classic;html=1;fontSize=18;entryX=0;entryY=0.5;entryDx=0;entryDy=0;exitX=0;exitY=0;exitDx=0;exitDy=0;" edge="1" parent="1" source="7" target="2">
                    <mxGeometry width="50" height="50" relative="1" as="geometry">
                        <mxPoint x="10" y="214.35" as="sourcePoint"/>
                        <mxPoint x="20" y="264.35" as="targetPoint"/>
                        <Array as="points">
                            <mxPoint x="10" y="374.35"/>
                        </Array>
                    </mxGeometry>
                </mxCell>
                <mxCell id="6" value="" style="endArrow=none;dashed=1;html=1;fontSize=18;entryX=-0.002;entryY=0.102;entryDx=0;entryDy=0;entryPerimeter=0;" edge="1" parent="1" target="4">
                    <mxGeometry width="50" height="50" relative="1" as="geometry">
                        <mxPoint x="10" y="274.35" as="sourcePoint"/>
                        <mxPoint x="390" y="334.35" as="targetPoint"/>
                    </mxGeometry>
                </mxCell>
                <mxCell id="7" value="VAddr&lt;br&gt;" style="text;html=1;strokeColor=none;fillColor=none;align=center;verticalAlign=middle;whiteSpace=wrap;rounded=0;fontSize=18;" vertex="1" parent="1">
                    <mxGeometry x="10" y="224.35" width="60" height="30" as="geometry"/>
                </mxCell>
                <mxCell id="12" value="" style="group" vertex="1" connectable="0" parent="1">
                    <mxGeometry x="240" y="316.86" width="30" height="115" as="geometry"/>
                </mxCell>
                <mxCell id="13" value="" style="group" vertex="1" connectable="0" parent="12">
                    <mxGeometry x="10" y="-10" width="20" height="115" as="geometry"/>
                </mxCell>
                <mxCell id="14" value="" style="rounded=0;whiteSpace=wrap;html=1;fontSize=18;" vertex="1" parent="13">
                    <mxGeometry width="20" height="115" as="geometry"/>
                </mxCell>
                <mxCell id="15" value="" style="endArrow=none;html=1;fontSize=18;exitX=0;exitY=1;exitDx=0;exitDy=0;entryX=1;entryY=1;entryDx=0;entryDy=0;rounded=0;" edge="1" parent="13" source="14" target="14">
                    <mxGeometry width="50" height="50" relative="1" as="geometry">
                        <mxPoint x="17.5" y="98.57142857142858" as="sourcePoint"/>
                        <mxPoint x="10" y="131.42857142857144" as="targetPoint"/>
                        <Array as="points">
                            <mxPoint x="10" y="104.8529411764706"/>
                        </Array>
                    </mxGeometry>
                </mxCell>
                <mxCell id="8" value="" style="rounded=0;whiteSpace=wrap;html=1;fontSize=18;" vertex="1" parent="12">
                    <mxGeometry width="20" height="115" as="geometry"/>
                </mxCell>
                <mxCell id="10" value="" style="endArrow=none;html=1;fontSize=18;exitX=0;exitY=1;exitDx=0;exitDy=0;entryX=1;entryY=1;entryDx=0;entryDy=0;rounded=0;" edge="1" parent="12" source="8" target="8">
                    <mxGeometry width="50" height="50" relative="1" as="geometry">
                        <mxPoint x="17.5" y="98.57142857142858" as="sourcePoint"/>
                        <mxPoint x="10" y="131.42857142857144" as="targetPoint"/>
                        <Array as="points">
                            <mxPoint x="10" y="104.8529411764706"/>
                        </Array>
                    </mxGeometry>
                </mxCell>
                <mxCell id="16" value="" style="endArrow=classic;html=1;rounded=0;fontSize=18;exitX=1;exitY=0.5;exitDx=0;exitDy=0;entryX=0;entryY=0.5;entryDx=0;entryDy=0;" edge="1" parent="1" source="2" target="8">
                    <mxGeometry width="50" height="50" relative="1" as="geometry">
                        <mxPoint x="170" y="404.35" as="sourcePoint"/>
                        <mxPoint x="220" y="354.35" as="targetPoint"/>
                    </mxGeometry>
                </mxCell>
                <mxCell id="18" value="" style="rounded=1;whiteSpace=wrap;html=1;fontSize=18;" vertex="1" parent="1">
                    <mxGeometry x="350" y="348.74" width="70" height="51.25" as="geometry"/>
                </mxCell>
                <mxCell id="19" value="= ?" style="text;html=1;strokeColor=none;fillColor=none;align=center;verticalAlign=middle;whiteSpace=wrap;rounded=0;fontSize=18;" vertex="1" parent="1">
                    <mxGeometry x="350" y="359.35" width="60" height="30" as="geometry"/>
                </mxCell>
                <mxCell id="21" value="" style="endArrow=classic;html=1;rounded=0;fontSize=18;exitX=1;exitY=0.5;exitDx=0;exitDy=0;entryX=0;entryY=0.5;entryDx=0;entryDy=0;" edge="1" parent="1" source="8" target="18">
                    <mxGeometry width="50" height="50" relative="1" as="geometry">
                        <mxPoint x="250" y="344.35" as="sourcePoint"/>
                        <mxPoint x="300" y="294.35" as="targetPoint"/>
                    </mxGeometry>
                </mxCell>
                <mxCell id="23" value="" style="endArrow=classic;html=1;rounded=1;fontSize=18;entryX=0.006;entryY=0.313;entryDx=0;entryDy=0;entryPerimeter=0;fillColor=#d80073;strokeColor=#FC0062;" edge="1" parent="1" target="18">
                    <mxGeometry width="50" height="50" relative="1" as="geometry">
                        <mxPoint x="300" y="224.35" as="sourcePoint"/>
                        <mxPoint x="330" y="234.35" as="targetPoint"/>
                        <Array as="points">
                            <mxPoint x="300" y="364.35"/>
                        </Array>
                    </mxGeometry>
                </mxCell>
                <mxCell id="24" value="" style="endArrow=none;dashed=1;html=1;rounded=1;fontSize=18;strokeColor=#FC0062;entryX=0;entryY=0.25;entryDx=0;entryDy=0;" edge="1" parent="1" target="20">
                    <mxGeometry width="50" height="50" relative="1" as="geometry">
                        <mxPoint x="300" y="314.35" as="sourcePoint"/>
                        <mxPoint x="360" y="304.35" as="targetPoint"/>
                    </mxGeometry>
                </mxCell>
                <mxCell id="25" value="PAddr" style="text;html=1;strokeColor=none;fillColor=none;align=center;verticalAlign=middle;whiteSpace=wrap;rounded=0;fontSize=18;" vertex="1" parent="1">
                    <mxGeometry x="300" y="224.35" width="60" height="30" as="geometry"/>
                </mxCell>
                <mxCell id="46" value="" style="group" vertex="1" connectable="0" parent="1">
                    <mxGeometry x="450" y="350.1" width="130" height="50.01999999999998" as="geometry"/>
                </mxCell>
                <mxCell id="43" value="" style="shape=parallelogram;perimeter=parallelogramPerimeter;whiteSpace=wrap;html=1;fixedSize=1;fontSize=18;direction=south;" vertex="1" parent="46">
                    <mxGeometry y="10" width="90" height="40" as="geometry"/>
                </mxCell>
                <mxCell id="44" value="" style="shape=parallelogram;perimeter=parallelogramPerimeter;whiteSpace=wrap;html=1;fixedSize=1;fontSize=18;direction=south;flipV=1;size=30.019999999999982;" vertex="1" parent="46">
                    <mxGeometry x="90" width="40" height="50.02" as="geometry"/>
                </mxCell>
                <mxCell id="45" value="" style="endArrow=none;html=1;rounded=0;fontSize=18;exitX=0;exitY=1;exitDx=0;exitDy=0;entryX=0;entryY=0;entryDx=0;entryDy=0;" edge="1" parent="46" source="43" target="44">
                    <mxGeometry width="50" height="50" relative="1" as="geometry">
                        <mxPoint x="90" y="30" as="sourcePoint"/>
                        <mxPoint x="140" y="-20" as="targetPoint"/>
                    </mxGeometry>
                </mxCell>
                <mxCell id="60" value="" style="group" vertex="1" connectable="0" parent="1">
                    <mxGeometry x="590" y="254.35" width="370" height="167.49" as="geometry"/>
                </mxCell>
                <mxCell id="53" value="" style="endArrow=none;html=1;rounded=0;labelBackgroundColor=default;fontFamily=Helvetica;fontSize=18;fontColor=default;shape=connector;exitX=1;exitY=0.5;exitDx=0;exitDy=0;" edge="1" parent="60">
                    <mxGeometry width="50" height="50" relative="1" as="geometry">
                        <mxPoint x="180" y="0.23500000000001364" as="sourcePoint"/>
                        <mxPoint x="230" as="targetPoint"/>
                    </mxGeometry>
                </mxCell>
                <mxCell id="57" value="" style="endArrow=none;html=1;rounded=0;labelBackgroundColor=default;fontFamily=Helvetica;fontSize=18;fontColor=default;strokeColor=default;shape=connector;" edge="1" parent="60">
                    <mxGeometry width="50" height="50" relative="1" as="geometry">
                        <mxPoint x="200" y="30" as="sourcePoint"/>
                        <mxPoint x="230" as="targetPoint"/>
                    </mxGeometry>
                </mxCell>
                <mxCell id="58" value="" style="curved=1;endArrow=classic;html=1;rounded=0;labelBackgroundColor=default;fontFamily=Helvetica;fontSize=18;fontColor=default;strokeColor=default;shape=connector;" edge="1" parent="60">
                    <mxGeometry width="50" height="50" relative="1" as="geometry">
                        <mxPoint x="200" y="30" as="sourcePoint"/>
                        <mxPoint x="430" y="120" as="targetPoint"/>
                        <Array as="points">
                            <mxPoint x="230" y="70"/>
                            <mxPoint x="330" y="120"/>
                        </Array>
                    </mxGeometry>
                </mxCell>
                <mxCell id="59" value="" style="curved=1;endArrow=classic;html=1;rounded=0;labelBackgroundColor=default;fontFamily=Helvetica;fontSize=18;fontColor=default;strokeColor=default;shape=connector;" edge="1" parent="60">
                    <mxGeometry width="50" height="50" relative="1" as="geometry">
                        <mxPoint x="230" as="sourcePoint"/>
                        <mxPoint x="460" y="90" as="targetPoint"/>
                        <Array as="points">
                            <mxPoint x="260" y="40"/>
                            <mxPoint x="360" y="90"/>
                        </Array>
                    </mxGeometry>
                </mxCell>
                <mxCell id="94" value="" style="html=1;whiteSpace=wrap;shape=isoCube2;backgroundOutline=1;isoAngle=15;fontFamily=Helvetica;fontSize=18;fontColor=default;rotation=15;" vertex="1" parent="60">
                    <mxGeometry x="350" y="90" width="20" height="24" as="geometry"/>
                </mxCell>
                <mxCell id="75" value="" style="html=1;whiteSpace=wrap;shape=isoCube2;backgroundOutline=1;isoAngle=15;fontFamily=Helvetica;fontSize=18;fontColor=#ffffff;rotation=30;fillColor=#d80073;strokeColor=#A50040;" vertex="1" parent="60">
                    <mxGeometry x="280" y="47.75" width="20" height="24" as="geometry"/>
                </mxCell>
                <mxCell id="104" value="" style="shape=link;html=1;rounded=1;labelBackgroundColor=default;fontFamily=Helvetica;fontSize=18;fontColor=default;endArrow=none;strokeColor=default;" edge="1" parent="60">
                    <mxGeometry width="100" relative="1" as="geometry">
                        <mxPoint x="380" y="75.65" as="sourcePoint"/>
                        <mxPoint x="395" y="34.650000000000006" as="targetPoint"/>
                        <Array as="points">
                            <mxPoint x="370" y="55.650000000000006"/>
                        </Array>
                    </mxGeometry>
                </mxCell>
                <mxCell id="37" value="" style="rounded=0;whiteSpace=wrap;html=1;fontSize=18;container=0;fillColor=#008a00;fontColor=#ffffff;strokeColor=#005700;" vertex="1" parent="60">
                    <mxGeometry x="30" y="-22.47999999999999" width="150" height="157.49" as="geometry"/>
                </mxCell>
                <mxCell id="34" value="" style="rounded=0;whiteSpace=wrap;html=1;fontSize=18;container=0;fillColor=#1ba1e2;fontColor=#ffffff;strokeColor=#006EAF;" vertex="1" parent="60">
                    <mxGeometry x="20" y="-12.509999999999962" width="150" height="157.49" as="geometry"/>
                </mxCell>
                <mxCell id="32" value="" style="rounded=0;whiteSpace=wrap;html=1;fontSize=18;container=0;fillColor=#d80073;fontColor=#ffffff;strokeColor=#A50040;" vertex="1" parent="60">
                    <mxGeometry x="10" y="-2.5099999999999625" width="150" height="157.49" as="geometry"/>
                </mxCell>
                <mxCell id="33" value="" style="endArrow=none;html=1;rounded=0;fontSize=18;exitX=0.717;exitY=1.001;exitDx=0;exitDy=0;entryX=0.895;entryY=0.999;entryDx=0;entryDy=0;entryPerimeter=0;exitPerimeter=0;" edge="1" parent="60" source="32" target="32">
                    <mxGeometry width="50" height="50" relative="1" as="geometry">
                        <mxPoint x="80" y="164.98000000000005" as="sourcePoint"/>
                        <mxPoint x="130" y="114.98000000000005" as="targetPoint"/>
                        <Array as="points">
                            <mxPoint x="130" y="134.98000000000005"/>
                        </Array>
                    </mxGeometry>
                </mxCell>
                <mxCell id="28" value="" style="rounded=0;whiteSpace=wrap;html=1;fontSize=18;container=0;" vertex="1" parent="60">
                    <mxGeometry y="7.490000000000029" width="150" height="157.49" as="geometry"/>
                </mxCell>
                <mxCell id="29" value="" style="endArrow=none;html=1;rounded=0;fontSize=18;exitX=0.717;exitY=1.001;exitDx=0;exitDy=0;entryX=0.895;entryY=0.999;entryDx=0;entryDy=0;entryPerimeter=0;exitPerimeter=0;" edge="1" parent="60" source="28" target="28">
                    <mxGeometry width="50" height="50" relative="1" as="geometry">
                        <mxPoint x="70" y="177.49000000000004" as="sourcePoint"/>
                        <mxPoint x="120" y="127.49000000000004" as="targetPoint"/>
                        <Array as="points">
                            <mxPoint x="120" y="147.49000000000004"/>
                        </Array>
                    </mxGeometry>
                </mxCell>
                <mxCell id="52" value="" style="endArrow=none;html=1;rounded=0;labelBackgroundColor=default;fontFamily=Helvetica;fontSize=18;fontColor=default;strokeColor=default;shape=connector;exitX=1;exitY=0.5;exitDx=0;exitDy=0;" edge="1" parent="60">
                    <mxGeometry width="50" height="50" relative="1" as="geometry">
                        <mxPoint x="150" y="30.235000000000042" as="sourcePoint"/>
                        <mxPoint x="200" y="30.00000000000003" as="targetPoint"/>
                    </mxGeometry>
                </mxCell>
                <mxCell id="54" value="" style="endArrow=none;html=1;rounded=0;labelBackgroundColor=default;fontFamily=Helvetica;fontSize=18;fontColor=default;shape=connector;exitX=1;exitY=0.5;exitDx=0;exitDy=0;" edge="1" parent="60">
                    <mxGeometry width="50" height="50" relative="1" as="geometry">
                        <mxPoint x="170" y="10.235000000000042" as="sourcePoint"/>
                        <mxPoint x="220" y="10.000000000000028" as="targetPoint"/>
                    </mxGeometry>
                </mxCell>
                <mxCell id="74" value="BANK 0~3" style="text;html=1;strokeColor=none;fillColor=none;align=center;verticalAlign=middle;whiteSpace=wrap;rounded=0;fontFamily=Helvetica;fontSize=18;fontColor=default;container=0;" vertex="1" parent="60">
                    <mxGeometry x="30" y="71.24000000000004" width="92.5" height="30" as="geometry"/>
                </mxCell>
                <mxCell id="55" value="" style="endArrow=none;html=1;rounded=0;labelBackgroundColor=default;fontFamily=Helvetica;fontSize=18;fontColor=default;shape=connector;exitX=1;exitY=0.5;exitDx=0;exitDy=0;" edge="1" parent="60">
                    <mxGeometry width="50" height="50" relative="1" as="geometry">
                        <mxPoint x="160" y="20.235000000000014" as="sourcePoint"/>
                        <mxPoint x="210" y="20" as="targetPoint"/>
                    </mxGeometry>
                </mxCell>
                <mxCell id="62" value="" style="endArrow=classic;html=1;rounded=0;labelBackgroundColor=default;fontFamily=Helvetica;fontSize=18;fontColor=default;strokeColor=default;shape=connector;exitX=1;exitY=0.5;exitDx=0;exitDy=0;" edge="1" parent="1" source="18">
                    <mxGeometry width="50" height="50" relative="1" as="geometry">
                        <mxPoint x="720" y="314.35" as="sourcePoint"/>
                        <mxPoint x="450" y="374.35" as="targetPoint"/>
                    </mxGeometry>
                </mxCell>
                <mxCell id="65" value="" style="group" vertex="1" connectable="0" parent="1">
                    <mxGeometry x="680" y="174.35" width="20" height="50" as="geometry"/>
                </mxCell>
                <mxCell id="66" value="" style="group" vertex="1" connectable="0" parent="65">
                    <mxGeometry x="6.666666666666666" y="-4.3478260869565215" width="13.333333333333332" height="50" as="geometry"/>
                </mxCell>
                <mxCell id="67" value="" style="rounded=0;whiteSpace=wrap;html=1;fontSize=18;" vertex="1" parent="66">
                    <mxGeometry width="13.333333333333332" height="50" as="geometry"/>
                </mxCell>
                <mxCell id="68" value="" style="endArrow=none;html=1;fontSize=18;exitX=0;exitY=1;exitDx=0;exitDy=0;entryX=1;entryY=1;entryDx=0;entryDy=0;rounded=0;" edge="1" parent="66" source="67" target="67">
                    <mxGeometry width="50" height="50" relative="1" as="geometry">
                        <mxPoint x="11.666666666666666" y="42.85714285714286" as="sourcePoint"/>
                        <mxPoint x="6.666666666666666" y="57.142857142857146" as="targetPoint"/>
                        <Array as="points">
                            <mxPoint x="6.666666666666666" y="45.588235294117645"/>
                        </Array>
                    </mxGeometry>
                </mxCell>
                <mxCell id="69" value="" style="rounded=0;whiteSpace=wrap;html=1;fontSize=18;" vertex="1" parent="65">
                    <mxGeometry width="13.333333333333332" height="50" as="geometry"/>
                </mxCell>
                <mxCell id="70" value="" style="endArrow=none;html=1;fontSize=18;exitX=0;exitY=1;exitDx=0;exitDy=0;entryX=1;entryY=1;entryDx=0;entryDy=0;rounded=0;" edge="1" parent="65" source="69" target="69">
                    <mxGeometry width="50" height="50" relative="1" as="geometry">
                        <mxPoint x="11.666666666666666" y="42.85714285714286" as="sourcePoint"/>
                        <mxPoint x="6.666666666666666" y="57.142857142857146" as="targetPoint"/>
                        <Array as="points">
                            <mxPoint x="6.666666666666666" y="45.588235294117645"/>
                        </Array>
                    </mxGeometry>
                </mxCell>
                <mxCell id="71" value="" style="endArrow=classic;html=1;rounded=1;labelBackgroundColor=default;fontFamily=Helvetica;fontSize=18;fontColor=default;strokeColor=default;shape=connector;entryX=0;entryY=0.5;entryDx=0;entryDy=0;" edge="1" parent="1" target="69">
                    <mxGeometry width="50" height="50" relative="1" as="geometry">
                        <mxPoint x="520" y="354.35" as="sourcePoint"/>
                        <mxPoint x="720" y="154.35" as="targetPoint"/>
                        <Array as="points">
                            <mxPoint x="520" y="199.35"/>
                        </Array>
                    </mxGeometry>
                </mxCell>
                <mxCell id="72" value="Bank Info" style="text;html=1;strokeColor=none;fillColor=none;align=center;verticalAlign=middle;whiteSpace=wrap;rounded=0;fontFamily=Helvetica;fontSize=18;fontColor=default;" vertex="1" parent="1">
                    <mxGeometry x="570" y="174.35" width="100" height="30" as="geometry"/>
                </mxCell>
                <mxCell id="73" value="Addr Gen" style="text;html=1;strokeColor=none;fillColor=none;align=center;verticalAlign=middle;whiteSpace=wrap;rounded=0;fontFamily=Helvetica;fontSize=18;fontColor=default;" vertex="1" parent="1">
                    <mxGeometry x="467.5" y="404.35" width="95" height="30" as="geometry"/>
                </mxCell>
                <mxCell id="95" value="" style="html=1;whiteSpace=wrap;shape=isoCube2;backgroundOutline=1;isoAngle=15;fontFamily=Helvetica;fontSize=18;fontColor=#ffffff;rotation=5;fillColor=#008a00;strokeColor=#005700;" vertex="1" parent="1">
                    <mxGeometry x="980" y="326.1" width="20" height="24" as="geometry"/>
                </mxCell>
                <mxCell id="99" value="" style="group" vertex="1" connectable="0" parent="1">
                    <mxGeometry x="890" y="174.35" width="110" height="60" as="geometry"/>
                </mxCell>
                <mxCell id="97" value="" style="rounded=1;whiteSpace=wrap;html=1;fontFamily=Helvetica;fontSize=18;fontColor=default;" vertex="1" parent="99">
                    <mxGeometry width="110" height="60" as="geometry"/>
                </mxCell>
                <mxCell id="98" value="Reorder&lt;br&gt;Module" style="text;html=1;strokeColor=none;fillColor=none;align=center;verticalAlign=middle;whiteSpace=wrap;rounded=0;fontFamily=Helvetica;fontSize=18;fontColor=default;" vertex="1" parent="99">
                    <mxGeometry x="20" y="15" width="70" height="30" as="geometry"/>
                </mxCell>
                <mxCell id="100" value="" style="endArrow=classic;html=1;rounded=1;labelBackgroundColor=default;fontFamily=Helvetica;fontSize=18;fontColor=default;strokeColor=default;shape=connector;entryX=-0.016;entryY=0.42;entryDx=0;entryDy=0;entryPerimeter=0;" edge="1" parent="1" target="97">
                    <mxGeometry width="50" height="50" relative="1" as="geometry">
                        <mxPoint x="700" y="200" as="sourcePoint"/>
                        <mxPoint x="920" y="160" as="targetPoint"/>
                    </mxGeometry>
                </mxCell>
                <mxCell id="102" value="" style="ellipse;shape=doubleEllipse;whiteSpace=wrap;html=1;aspect=fixed;fontFamily=Helvetica;fontSize=18;fontColor=default;" vertex="1" parent="1">
                    <mxGeometry x="980" y="283.93" width="10.42" height="10.42" as="geometry"/>
                </mxCell>
                <mxCell id="123" value="Inst Package" style="text;html=1;strokeColor=none;fillColor=none;align=center;verticalAlign=middle;whiteSpace=wrap;rounded=0;fontFamily=Helvetica;fontSize=18;fontColor=default;" vertex="1" parent="1">
                    <mxGeometry x="930.21" y="401.86" width="110" height="30" as="geometry"/>
                </mxCell>
                <mxCell id="126" value="" style="endArrow=classic;html=1;rounded=1;labelBackgroundColor=default;fontFamily=Helvetica;fontSize=18;fontColor=default;strokeColor=default;shape=connector;exitX=1;exitY=0;exitDx=0;exitDy=0;entryX=-0.001;entryY=0.878;entryDx=0;entryDy=0;entryPerimeter=0;" edge="1" parent="1" source="43" target="28">
                    <mxGeometry width="50" height="50" relative="1" as="geometry">
                        <mxPoint x="510" y="390" as="sourcePoint"/>
                        <mxPoint x="560" y="340" as="targetPoint"/>
                    </mxGeometry>
                </mxCell>
                <mxCell id="130" value="" style="group" vertex="1" connectable="0" parent="1">
                    <mxGeometry x="1020" y="350" width="110" height="80" as="geometry"/>
                </mxCell>
                <mxCell id="108" value="" style="shape=parallelogram;perimeter=parallelogramPerimeter;whiteSpace=wrap;html=1;fixedSize=1;fontFamily=Helvetica;fontSize=18;fontColor=default;container=0;" vertex="1" parent="130">
                    <mxGeometry x="20" y="20" width="70" height="30" as="geometry"/>
                </mxCell>
                <mxCell id="111" value="" style="endArrow=none;html=1;rounded=1;labelBackgroundColor=default;fontFamily=Helvetica;fontSize=18;fontColor=default;strokeColor=default;shape=connector;exitX=0;exitY=1;exitDx=0;exitDy=0;" edge="1" parent="130" source="108">
                    <mxGeometry width="50" height="50" relative="1" as="geometry">
                        <mxPoint x="40" y="40" as="sourcePoint"/>
                        <mxPoint y="30" as="targetPoint"/>
                    </mxGeometry>
                </mxCell>
                <mxCell id="112" value="" style="endArrow=none;html=1;rounded=1;labelBackgroundColor=default;fontFamily=Helvetica;fontSize=18;fontColor=default;strokeColor=default;shape=connector;exitX=0;exitY=1;exitDx=0;exitDy=0;" edge="1" parent="130">
                    <mxGeometry width="50" height="50" relative="1" as="geometry">
                        <mxPoint x="40" y="20.100000000000023" as="sourcePoint"/>
                        <mxPoint x="20" y="0.10000000000002274" as="targetPoint"/>
                    </mxGeometry>
                </mxCell>
                <mxCell id="113" value="" style="endArrow=none;html=1;rounded=1;labelBackgroundColor=default;fontFamily=Helvetica;fontSize=18;fontColor=default;strokeColor=default;shape=connector;" edge="1" parent="130">
                    <mxGeometry width="50" height="50" relative="1" as="geometry">
                        <mxPoint y="30" as="sourcePoint"/>
                        <mxPoint x="20" as="targetPoint"/>
                    </mxGeometry>
                </mxCell>
                <mxCell id="114" value="" style="endArrow=none;html=1;rounded=1;labelBackgroundColor=default;fontFamily=Helvetica;fontSize=18;fontColor=default;strokeColor=default;shape=connector;exitX=0.75;exitY=1;exitDx=0;exitDy=0;" edge="1" parent="130" source="108">
                    <mxGeometry width="50" height="50" relative="1" as="geometry">
                        <mxPoint x="40" y="40" as="sourcePoint"/>
                        <mxPoint x="90" y="30" as="targetPoint"/>
                    </mxGeometry>
                </mxCell>
                <mxCell id="115" value="" style="endArrow=none;html=1;rounded=1;labelBackgroundColor=default;fontFamily=Helvetica;fontSize=18;fontColor=default;strokeColor=default;shape=connector;exitX=0.75;exitY=1;exitDx=0;exitDy=0;" edge="1" parent="130">
                    <mxGeometry width="50" height="50" relative="1" as="geometry">
                        <mxPoint x="89.99909090909068" y="19.996363636363526" as="sourcePoint"/>
                        <mxPoint x="109.09000000000015" y="1.3600000000000136" as="targetPoint"/>
                    </mxGeometry>
                </mxCell>
                <mxCell id="116" value="" style="endArrow=none;html=1;rounded=1;labelBackgroundColor=default;fontFamily=Helvetica;fontSize=18;fontColor=default;strokeColor=default;shape=connector;" edge="1" parent="130">
                    <mxGeometry width="50" height="50" relative="1" as="geometry">
                        <mxPoint x="90" y="30" as="sourcePoint"/>
                        <mxPoint x="110" as="targetPoint"/>
                    </mxGeometry>
                </mxCell>
                <mxCell id="118" value="" style="rounded=0;whiteSpace=wrap;html=1;fontFamily=Helvetica;fontSize=18;fontColor=default;container=0;" vertex="1" parent="130">
                    <mxGeometry x="20" y="50" width="50" height="30" as="geometry"/>
                </mxCell>
                <mxCell id="120" value="" style="endArrow=none;html=1;rounded=1;labelBackgroundColor=default;fontFamily=Helvetica;fontSize=18;fontColor=default;strokeColor=default;shape=connector;" edge="1" parent="130">
                    <mxGeometry width="50" height="50" relative="1" as="geometry">
                        <mxPoint x="90" y="59.97000000000003" as="sourcePoint"/>
                        <mxPoint x="90" y="29.970000000000027" as="targetPoint"/>
                    </mxGeometry>
                </mxCell>
                <mxCell id="121" value="" style="endArrow=none;html=1;rounded=1;labelBackgroundColor=default;fontFamily=Helvetica;fontSize=18;fontColor=default;strokeColor=default;shape=connector;exitX=1;exitY=1;exitDx=0;exitDy=0;" edge="1" parent="130" source="118">
                    <mxGeometry width="50" height="50" relative="1" as="geometry">
                        <mxPoint x="50" y="60" as="sourcePoint"/>
                        <mxPoint x="90" y="60" as="targetPoint"/>
                    </mxGeometry>
                </mxCell>
                <mxCell id="93" value="" style="html=1;whiteSpace=wrap;shape=isoCube2;backgroundOutline=1;isoAngle=15;fontFamily=Helvetica;fontSize=18;fontColor=#ffffff;rotation=60;container=0;fillColor=#0050ef;strokeColor=#001DBC;" vertex="1" parent="130">
                    <mxGeometry x="35" y="20" width="20" height="24" as="geometry"/>
                </mxCell>
                <mxCell id="138" value="Hit Gen" style="rounded=1;whiteSpace=wrap;html=1;fontFamily=Helvetica;fontSize=18;fontColor=default;" vertex="1" parent="1">
                    <mxGeometry x="345" y="444.35" width="80" height="30" as="geometry"/>
                </mxCell>
                <mxCell id="140" value="crossLine?" style="text;html=1;strokeColor=none;fillColor=none;align=center;verticalAlign=middle;whiteSpace=wrap;rounded=0;fontFamily=Helvetica;fontSize=18;fontColor=default;" vertex="1" parent="1">
                    <mxGeometry x="300" y="414.35" width="60" height="30" as="geometry"/>
                </mxCell>
                <mxCell id="141" value="" style="endArrow=classic;html=1;rounded=1;labelBackgroundColor=default;fontFamily=Helvetica;fontSize=18;fontColor=default;strokeColor=default;shape=connector;entryX=0;entryY=0.5;entryDx=0;entryDy=0;exitX=0.5;exitY=1;exitDx=0;exitDy=0;" edge="1" parent="1" source="140" target="138">
                    <mxGeometry width="50" height="50" relative="1" as="geometry">
                        <mxPoint x="290" y="490" as="sourcePoint"/>
                        <mxPoint x="340" y="440" as="targetPoint"/>
                        <Array as="points">
                            <mxPoint x="330" y="459"/>
                        </Array>
                    </mxGeometry>
                </mxCell>
                <mxCell id="142" value="" style="endArrow=classic;html=1;rounded=1;labelBackgroundColor=default;fontFamily=Helvetica;fontSize=18;fontColor=default;strokeColor=default;shape=connector;exitX=0.5;exitY=1;exitDx=0;exitDy=0;" edge="1" parent="1" source="138">
                    <mxGeometry width="50" height="50" relative="1" as="geometry">
                        <mxPoint x="360" y="440" as="sourcePoint"/>
                        <mxPoint x="385" y="500" as="targetPoint"/>
                    </mxGeometry>
                </mxCell>
                <mxCell id="143" value="hit" style="text;html=1;strokeColor=none;fillColor=none;align=center;verticalAlign=middle;whiteSpace=wrap;rounded=0;fontFamily=Helvetica;fontSize=18;fontColor=default;" vertex="1" parent="1">
                    <mxGeometry x="370" y="474.35" width="60" height="30" as="geometry"/>
                </mxCell>
            </root>
        </mxGraphModel>
    </diagram>
</mxfile>